<?xml version="1.0" encoding="utf-8"?>
<!-- Generator: Adobe Illustrator 21.0.2, SVG Export Plug-In . SVG Version: 6.00 Build 0)  -->
<svg version="1.1" id="Layer_1" xmlns="http://www.w3.org/2000/svg" xmlns:xlink="http://www.w3.org/1999/xlink" x="0px" y="0px"
	 viewBox="0 0 523 55" style="enable-background:new 0 0 523 55;" xml:space="preserve">
<style type="text/css">
	.st0{fill:#FFFFFF;}
</style>
<title>Mirrorr Logo PDF</title>
<desc>Created with Sketch.</desc>
<g id="Mirrorr-Logo-PDF">
	<polygon id="Fill-1" class="st0" points="91.1,53.8 101.6,53.8 101.6,1.8 91.1,1.8 	"/>
	<polygon id="Fill-2" class="st0" points="44.2,53.8 54.7,53.8 54.7,1.8 44.2,1.8 	"/>
	<polygon id="Fill-3" class="st0" points="0.5,53.8 11.1,53.8 11.1,1.8 0.5,1.8 	"/>
	<polygon id="Fill-4" class="st0" points="22.4,53.8 32.9,53.8 32.9,25 22.4,25 	"/>
	<g id="Group-19" transform="translate(138.000000, 0.000000)">
		<path id="Fill-5" class="st0" d="M10.4,25.4h8c3.8,0,6.6-0.6,8.3-1.8c1.7-1.2,2.6-3,2.6-5.3c0-2.5-0.8-4.4-2.4-5.6
			c-1.6-1.2-4.4-1.8-8.4-1.8h-8V25.4z M0.1,53.8v-52h21.1c2.2,0,4.4,0.2,6.6,0.7C30,3,32,3.8,33.7,5c1.7,1.2,3.2,2.7,4.3,4.7
			c1.1,2,1.7,4.5,1.7,7.6c0,1.9-0.2,3.7-0.7,5.4c-0.5,1.7-1.2,3.3-2.1,4.7c-1,1.4-2.2,2.7-3.7,3.8c-1.5,1.1-3.4,2-5.5,2.6l13.3,20.1
			H29L16.1,34.3h-5.7v19.5H0.1z"/>
		<path id="Fill-7" class="st0" d="M83.5,25.4h8c3.8,0,6.5-0.6,8.3-1.8c1.7-1.2,2.6-3,2.6-5.3c0-2.5-0.8-4.4-2.4-5.6
			c-1.6-1.2-4.4-1.8-8.4-1.8h-8V25.4z M73.2,53.8v-52h21.1c2.2,0,4.4,0.2,6.6,0.7c2.2,0.5,4.1,1.3,5.9,2.5c1.7,1.2,3.2,2.7,4.3,4.7
			c1.1,2,1.7,4.5,1.7,7.6c0,1.9-0.2,3.7-0.7,5.4c-0.5,1.7-1.2,3.3-2.1,4.7c-1,1.4-2.2,2.7-3.7,3.8c-1.5,1.1-3.4,2-5.5,2.6L114,53.8
			h-11.9L89.2,34.3h-5.7v19.5H73.2z"/>
		<path id="Fill-9" class="st0" d="M156.6,40.2c1.1,1.7,2.5,3,4.2,4c1.6,1,3.5,1.5,5.7,1.5c2.2,0,4.1-0.5,5.8-1.5
			c1.7-1,3.1-2.3,4.3-4c1.1-1.7,2-3.6,2.6-5.7c0.6-2.2,0.9-4.4,0.9-6.7c0-2.3-0.3-4.5-0.9-6.7c-0.6-2.2-1.4-4.1-2.6-5.7
			c-1.1-1.7-2.6-3-4.3-4c-1.7-1-3.6-1.5-5.8-1.5c-2.2,0-4.1,0.5-5.7,1.5c-1.6,1-3,2.3-4.2,4c-1.1,1.7-2,3.6-2.6,5.7
			c-0.6,2.2-0.9,4.4-0.9,6.7c0,2.3,0.3,4.5,0.9,6.7C154.6,36.6,155.5,38.5,156.6,40.2 M156,52.6c-3-1.6-5.5-3.7-7.5-6.2
			c-2-2.5-3.5-5.4-4.4-8.7c-1-3.3-1.5-6.5-1.5-9.9c0-3.3,0.5-6.6,1.5-9.9c1-3.2,2.5-6.1,4.4-8.7c2-2.5,4.5-4.6,7.5-6.2
			c3-1.6,6.5-2.3,10.5-2.3c4.1,0,7.6,0.8,10.6,2.3c3,1.6,5.5,3.6,7.6,6.2c2,2.5,3.5,5.4,4.5,8.7c1,3.3,1.5,6.5,1.5,9.9
			c0,3.3-0.5,6.6-1.5,9.9c-1,3.2-2.5,6.1-4.5,8.7c-2,2.5-4.5,4.6-7.6,6.2c-3,1.6-6.6,2.4-10.6,2.4C162.5,54.9,159,54.1,156,52.6"/>
		<path id="Fill-11" class="st0" d="M235,25.4h8c3.8,0,6.5-0.6,8.3-1.8c1.7-1.2,2.6-3,2.6-5.3c0-2.5-0.8-4.4-2.4-5.6
			c-1.6-1.2-4.4-1.8-8.4-1.8h-8V25.4z M224.7,53.8v-52h21.1c2.2,0,4.4,0.2,6.6,0.7c2.2,0.5,4.1,1.3,5.9,2.5c1.7,1.2,3.2,2.7,4.3,4.7
			c1.1,2,1.7,4.5,1.7,7.6c0,1.9-0.2,3.7-0.7,5.4c-0.5,1.7-1.2,3.3-2.1,4.7c-1,1.4-2.2,2.7-3.7,3.8c-1.5,1.1-3.4,2-5.5,2.6l13.3,20.1
			h-11.9l-12.9-19.5H235v19.5H224.7z"/>
		<path id="Fill-13" class="st0" d="M308.1,25.4h8c3.8,0,6.5-0.6,8.3-1.8c1.7-1.2,2.6-3,2.6-5.3c0-2.5-0.8-4.4-2.4-5.6
			c-1.6-1.2-4.4-1.8-8.4-1.8h-8V25.4z M297.8,53.8v-52h21.1c2.2,0,4.4,0.2,6.6,0.7c2.2,0.5,4.1,1.3,5.9,2.5c1.7,1.2,3.2,2.7,4.3,4.7
			c1.1,2,1.7,4.5,1.7,7.6c0,1.9-0.2,3.7-0.7,5.4c-0.5,1.7-1.2,3.3-2.1,4.7c-1,1.4-2.2,2.7-3.7,3.8c-1.5,1.1-3.4,2-5.5,2.6l13.3,20.1
			h-11.9l-12.9-19.5h-5.7v19.5H297.8z"/>
		<polygon id="Fill-15" class="st0" points="359.4,16.1 359.4,4.4 355.1,4.4 355.1,1.8 366.5,1.8 366.5,4.4 362.3,4.4 362.3,16.1 		
			"/>
		<polygon id="Fill-17" class="st0" points="370.6,16.1 370.6,1.8 373.5,1.8 377.7,11.3 381.5,1.8 384.5,1.8 384.5,16.1 381.7,16.1 
			381.7,8.1 378.2,16.2 377.2,16.2 373.4,8 373.4,16.1 		"/>
	</g>
</g>
</svg>
